#define clut_width 18
#define clut_height 233
static char clut_bits[] = {
 0xe0,0x07,0x00,0xf8,0x0f,0x00,0xfc,0x1f,0x00,0x3e,0x1c,0x00,0x1e,0x30,0x00,
 0x07,0x20,0x00,0x03,0x20,0x00,0x01,0x20,0x00,0x01,0x20,0x00,0x01,0x30,0x00,
 0x03,0x10,0x00,0x1e,0x0c,0x00,0x07,0x00,0x00,0x00,0x00,0x00,0x00,0x0f,0x00,
 0x80,0x1f,0x00,0xc0,0x3f,0x00,0xc0,0x20,0x00,0x20,0x20,0x00,0x20,0x20,0x00,
 0x20,0x18,0x00,0xe0,0x1f,0x00,0xc0,0x0f,0x00,0x80,0x07,0x00,0x00,0x00,0x00,
 0x00,0x3e,0x00,0xf1,0x3f,0x00,0xff,0x3f,0x00,0xff,0x21,0x00,0x0f,0x10,0x00,
 0x00,0x00,0x00,0x00,0x0f,0x00,0x80,0x1f,0x00,0xc0,0x3f,0x00,0xc0,0x20,0x00,
 0x20,0x20,0x00,0x20,0x20,0x00,0x20,0x18,0x00,0xe0,0x1f,0x00,0xc0,0x0f,0x00,
 0x80,0x07,0x00,0x00,0x00,0x00,0x20,0x3c,0x00,0xe0,0x3f,0x00,0xe0,0x3f,0x00,
 0xe0,0x03,0x00,0x80,0x00,0x00,0x40,0x00,0x00,0xe0,0x00,0x00,0xe0,0x00,0x00,
 0x60,0x00,0x00,0x00,0x00,0x00,0x00,0x00,0x00,0x00,0x00,0x00,0x00,0x00,0x00,
 0x00,0x3e,0x00,0xf1,0x3f,0x00,0xff,0x3f,0x00,0xff,0x21,0x00,0x0f,0x10,0x00,
 0x00,0x00,0x00,0x00,0x0f,0x00,0x80,0x1f,0x00,0xc0,0x3f,0x00,0xc0,0x20,0x00,
 0x20,0x20,0x00,0x20,0x20,0x00,0x20,0x18,0x00,0xe0,0x1f,0x00,0xc0,0x0f,0x00,
 0x80,0x07,0x00,0x00,0x00,0x00,0x00,0x0f,0x00,0x80,0x1f,0x00,0xc0,0x3f,0x00,
 0xc0,0x20,0x00,0x20,0x20,0x00,0x20,0x20,0x00,0x20,0x18,0x00,0xe0,0x1f,0x00,
 0xc0,0x0f,0x00,0x80,0x07,0x00,0x00,0x00,0x00,0x00,0x3e,0x00,0xf1,0x3f,0x00,
 0xff,0x3f,0x00,0xff,0x03,0x00,0x8f,0x00,0x00,0x40,0x0e,0x00,0x60,0x3e,0x00,
 0xe0,0x3d,0x00,0xe0,0x31,0x00,0xc0,0x10,0x00,0x00,0x08,0x00,0x20,0x1e,0x00,
 0xe0,0x3f,0x00,0xe0,0x3f,0x00,0xe0,0x31,0x00,0x00,0x10,0x00,0x00,0x08,0x00,
 0x00,0x3e,0x00,0xe0,0x3f,0x00,0xe0,0x3f,0x00,0xe0,0x21,0x00,0x00,0x10,0x00,
 0x00,0x00,0x02,0x00,0xc0,0x03,0x20,0xfe,0x03,0xe0,0xff,0x03,0xe0,0x3f,0x02,
 0xe0,0x21,0x00,0x40,0x20,0x00,0x20,0x20,0x00,0x20,0x18,0x00,0xe0,0x1f,0x00,
 0xc0,0x0f,0x00,0x80,0x07,0x00,0x00,0x00,0x00,0x00,0x00,0x00,0x00,0x00,0x00,
 0x00,0x00,0x00,0x00,0x00,0x00,0x00,0x00,0x00,0x20,0x3e,0x00,0xe0,0x3f,0x00,
 0xfc,0x3f,0x00,0xfc,0x21,0x00,0x3c,0x10,0x00,0x20,0x00,0x00,0x20,0x00,0x00,
 0x00,0x0f,0x00,0x80,0x1f,0x00,0xc0,0x3f,0x00,0xc0,0x20,0x00,0x20,0x20,0x00,
 0x20,0x10,0x00,0x40,0x1c,0x00,0xe0,0x3f,0x00,0xe0,0x3f,0x00,0xe0,0x23,0x00,
 0x00,0x10,0x00,0x00,0x00,0x00,0x00,0x0f,0x00,0xf1,0x1f,0x00,0xff,0x3f,0x00,
 0xff,0x21,0x00,0x4f,0x20,0x00,0x20,0x20,0x00,0x20,0x18,0x00,0xe0,0x1f,0x00,
 0xc0,0x0f,0x00,0x80,0x07,0x00,0x00,0x00,0x00,0x00,0x3e,0x00,0xf1,0x3f,0x00,
 0xff,0x3f,0x00,0xff,0x21,0x00,0x0f,0x10,0x00,0x00,0x00,0x00,0x00,0x0f,0x00,
 0x80,0x1f,0x00,0xc0,0x3f,0x00,0xc0,0x24,0x00,0x20,0x24,0x00,0x20,0x22,0x00,
 0x20,0x13,0x00,0xe0,0x13,0x00,0xc0,0x01,0x00,0x00,0x00,0x00,0x00,0x00,0x00,
 0x00,0x00,0x00,0x00,0x00,0x00,0x00,0x00,0x00,0x20,0x0e,0x00,0xe0,0x1f,0x00,
 0xe0,0x3f,0x00,0xe0,0x31,0x00,0x00,0x30,0x00,0x00,0x10,0x00,0x00,0x0e,0x00,
 0xe0,0x1f,0x00,0xe0,0x3f,0x00,0xe0,0x31,0x00,0x00,0x30,0x00,0x00,0x10,0x00,
 0x60,0x18,0x00,0xe0,0x0c,0x00,0xc0,0x03,0x00,0x00,0x00,0x00,0x20,0x3e,0x00,
 0xe0,0x3f,0x00,0xe6,0x3f,0x00,0xe6,0x21,0x00,0x06,0x10,0x00,0x00,0x00,0x00,
 0x00,0x0f,0x00,0x80,0x1f,0x00,0xc0,0x3f,0x00,0xc0,0x20,0x00,0x20,0x20,0x00,
 0x20,0x20,0x00,0x20,0x10,0x00,0x40,0x1e,0x00,0xf1,0x3f,0x00,0xff,0x3f,0x00,
 0xff,0x21,0x00,0x0f,0x10,0x00,0x00,0x00,0x00,0x00,0x00,0x00,0x20,0x3e,0x00,
 0xe0,0x3f,0x00,0xfc,0x3f,0x00,0xfc,0x21,0x00,0x3c,0x10,0x00,0x20,0x00,0x00,
 0x20,0x00,0x00,0x00,0x3e,0x00,0xf1,0x3f,0x00,0xff,0x3f,0x00,0xff,0x01,0x00,
 0x8f,0x00,0x00,0x40,0x00,0x00,0x60,0x3c,0x00,0xe0,0x3f,0x00,0xe0,0x3f,0x00,
 0xc0,0x23,0x00,0x00,0x10,0x00,0x00,0x00,0x00,0x00,0x18,0x00,0xc0,0x3c,0x00,
 0xe0,0x3d,0x00,0xe0,0x19,0x00,0xc0,0x00,0x00};
